<svg width="102" height="16" viewBox="0 0 102 16" fill="none" xmlns="http://www.w3.org/2000/svg">
<path d="M10.784 0.456C10.896 0.631999 10.992 0.871999 11.072 1.176C11.168 1.464 11.216 1.768 11.216 2.088C11.216 2.712 11.08 3.16 10.808 3.432C10.552 3.688 10.2 3.816 9.752 3.816H4.712V6.528H9.968C10.096 6.704 10.2 6.936 10.28 7.224C10.376 7.512 10.424 7.816 10.424 8.136C10.424 8.744 10.288 9.184 10.016 9.456C9.76 9.712 9.408 9.84 8.96 9.84H4.76V14.904C4.584 14.952 4.304 15 3.92 15.048C3.552 15.096 3.184 15.12 2.816 15.12C2.448 15.12 2.12 15.088 1.832 15.024C1.56 14.976 1.328 14.88 1.136 14.736C0.944 14.592 0.8 14.392 0.704 14.136C0.608 13.88 0.56 13.544 0.56 13.128V2.688C0.56 2 0.76 1.456 1.16 1.056C1.56 0.656 2.104 0.456 2.792 0.456H10.784ZM17.51 14.904C17.334 14.952 17.054 15 16.67 15.048C16.302 15.096 15.934 15.12 15.566 15.12C15.198 15.12 14.87 15.088 14.582 15.024C14.31 14.976 14.078 14.88 13.886 14.736C13.694 14.592 13.55 14.392 13.454 14.136C13.358 13.88 13.31 13.544 13.31 13.128V0.456C13.486 0.423999 13.766 0.383999 14.15 0.336C14.534 0.272 14.902 0.24 15.254 0.24C15.622 0.24 15.942 0.272 16.214 0.336C16.502 0.383999 16.742 0.479999 16.934 0.623999C17.126 0.767999 17.27 0.967999 17.366 1.224C17.462 1.48 17.51 1.816 17.51 2.232V14.904ZM19.6145 2.232C19.6945 2.008 19.8065 1.784 19.9505 1.56C20.0945 1.336 20.2705 1.136 20.4785 0.959999C20.7025 0.768 20.9585 0.616 21.2465 0.503999C21.5345 0.375999 21.8545 0.311999 22.2065 0.311999C22.6705 0.311999 23.0785 0.431999 23.4305 0.672C23.7825 0.896 24.1425 1.288 24.5105 1.848L26.3825 4.704L29.1425 0.623999C29.2705 0.559999 29.4465 0.503999 29.6705 0.456C29.9105 0.392 30.1425 0.36 30.3665 0.36C31.1025 0.36 31.6785 0.536 32.0945 0.888C32.5105 1.24 32.7185 1.672 32.7185 2.184C32.7185 2.632 32.5985 3.032 32.3585 3.384C32.1345 3.736 31.8225 4.16 31.4225 4.656L28.9505 7.68L32.8625 13.272C32.7345 13.864 32.4545 14.336 32.0225 14.688C31.6065 15.024 31.0385 15.192 30.3185 15.192C29.8545 15.192 29.4545 15.08 29.1185 14.856C28.7825 14.616 28.4385 14.216 28.0865 13.656L26.1425 10.584L23.1185 15.144C22.9905 15.16 22.8705 15.168 22.7585 15.168C22.6465 15.184 22.5345 15.192 22.4225 15.192C21.5105 15.192 20.8385 15.008 20.4065 14.64C19.9745 14.272 19.7585 13.816 19.7585 13.272C19.7585 12.808 19.8545 12.408 20.0465 12.072C20.2545 11.72 20.5425 11.312 20.9105 10.848L23.4305 7.608L19.6145 2.232ZM39.2126 10.296V14.904C39.0366 14.952 38.7566 15 38.3726 15.048C38.0046 15.096 37.6366 15.12 37.2686 15.12C36.9006 15.12 36.5726 15.088 36.2846 15.024C36.0126 14.976 35.7806 14.88 35.5886 14.736C35.4126 14.592 35.2766 14.392 35.1806 14.136C35.0846 13.88 35.0366 13.544 35.0366 13.128V1.824C35.0366 1.488 35.1246 1.232 35.3006 1.056C35.4926 0.863999 35.7486 0.711999 36.0686 0.599999C36.6126 0.407999 37.2446 0.271999 37.9646 0.191999C38.6846 0.0959992 39.4526 0.0479994 40.2686 0.0479994C42.4766 0.0479994 44.1406 0.512 45.2606 1.44C46.3806 2.368 46.9406 3.624 46.9406 5.208C46.9406 6.2 46.6846 7.048 46.1726 7.752C45.6606 8.456 45.0526 9 44.3486 9.384C44.9246 10.168 45.4926 10.904 46.0526 11.592C46.6126 12.28 47.0526 12.904 47.3726 13.464C47.2126 14.024 46.9166 14.456 46.4846 14.76C46.0686 15.048 45.5966 15.192 45.0686 15.192C44.7166 15.192 44.4126 15.152 44.1566 15.072C43.9006 14.992 43.6766 14.88 43.4846 14.736C43.2926 14.592 43.1166 14.416 42.9566 14.208C42.7966 14 42.6446 13.776 42.5006 13.536L40.4846 10.296H39.2126ZM40.7246 7.104C41.3326 7.104 41.8126 6.952 42.1646 6.648C42.5166 6.328 42.6926 5.864 42.6926 5.256C42.6926 4.648 42.4926 4.192 42.0926 3.888C41.7086 3.568 41.0926 3.408 40.2446 3.408C40.0046 3.408 39.8126 3.416 39.6686 3.432C39.5246 3.448 39.3646 3.472 39.1886 3.504V7.104H40.7246ZM48.7541 7.704C48.7541 6.456 48.9461 5.352 49.3301 4.392C49.7301 3.432 50.2661 2.632 50.9381 1.992C51.6261 1.336 52.4261 0.84 53.3381 0.503999C54.2661 0.168 55.2661 0 56.3381 0C57.4101 0 58.4021 0.168 59.3141 0.503999C60.2421 0.84 61.0501 1.336 61.7381 1.992C62.4261 2.632 62.9621 3.432 63.3461 4.392C63.7461 5.352 63.9461 6.456 63.9461 7.704C63.9461 8.952 63.7541 10.064 63.3701 11.04C62.9861 12 62.4501 12.808 61.7621 13.464C61.0901 14.104 60.2901 14.592 59.3621 14.928C58.4341 15.264 57.4261 15.432 56.3381 15.432C55.2501 15.432 54.2421 15.264 53.3141 14.928C52.3861 14.576 51.5861 14.072 50.9141 13.416C50.2421 12.76 49.7141 11.952 49.3301 10.992C48.9461 10.032 48.7541 8.936 48.7541 7.704ZM53.0741 7.704C53.0741 9.16 53.3701 10.248 53.9621 10.968C54.5541 11.688 55.3461 12.048 56.3381 12.048C57.3461 12.048 58.1461 11.688 58.7381 10.968C59.3301 10.248 59.6261 9.16 59.6261 7.704C59.6261 6.264 59.3301 5.184 58.7381 4.464C58.1621 3.744 57.3701 3.384 56.3621 3.384C55.3701 3.384 54.5701 3.744 53.9621 4.464C53.3701 5.168 53.0741 6.248 53.0741 7.704ZM68.5811 15.072C67.8931 15.072 67.3491 14.872 66.9491 14.472C66.5491 14.072 66.3491 13.528 66.3491 12.84V0.431999C66.5251 0.399999 66.8051 0.359999 67.1891 0.311999C67.5731 0.247999 67.9411 0.215999 68.2931 0.215999C68.6611 0.215999 68.9811 0.247999 69.2531 0.311999C69.5411 0.359999 69.7811 0.455999 69.9731 0.599999C70.1651 0.743999 70.3091 0.943999 70.4051 1.2C70.5011 1.456 70.5491 1.792 70.5491 2.208V11.688H76.0451C76.1571 11.864 76.2611 12.104 76.3571 12.408C76.4531 12.696 76.5011 13 76.5011 13.32C76.5011 13.96 76.3651 14.416 76.0931 14.688C75.8211 14.944 75.4611 15.072 75.0131 15.072H68.5811ZM80.8858 15.072C80.1978 15.072 79.6538 14.872 79.2538 14.472C78.8538 14.072 78.6538 13.528 78.6538 12.84V0.431999C78.8298 0.399999 79.1098 0.359999 79.4938 0.311999C79.8778 0.247999 80.2458 0.215999 80.5978 0.215999C80.9658 0.215999 81.2858 0.247999 81.5578 0.311999C81.8458 0.359999 82.0858 0.455999 82.2778 0.599999C82.4698 0.743999 82.6138 0.943999 82.7098 1.2C82.8058 1.456 82.8538 1.792 82.8538 2.208V11.688H88.3498C88.4618 11.864 88.5658 12.104 88.6618 12.408C88.7578 12.696 88.8058 13 88.8058 13.32C88.8058 13.96 88.6698 14.416 88.3978 14.688C88.1258 14.944 87.7658 15.072 87.3178 15.072H80.8858ZM95.0864 9.216C94.3824 8.976 93.7424 8.736 93.1664 8.496C92.5904 8.24 92.0944 7.936 91.6784 7.584C91.2624 7.232 90.9344 6.816 90.6944 6.336C90.4704 5.84 90.3584 5.24 90.3584 4.536C90.3584 3.176 90.8784 2.088 91.9184 1.272C92.9744 0.455999 94.4464 0.0479994 96.3344 0.0479994C97.0224 0.0479994 97.6624 0.0959992 98.2544 0.191999C98.8464 0.288 99.3504 0.44 99.7664 0.647999C100.198 0.839999 100.534 1.096 100.774 1.416C101.014 1.72 101.134 2.08 101.134 2.496C101.134 2.912 101.038 3.272 100.846 3.576C100.654 3.864 100.422 4.112 100.15 4.32C99.7984 4.096 99.3264 3.904 98.7344 3.744C98.1424 3.568 97.4944 3.48 96.7904 3.48C96.0704 3.48 95.5424 3.584 95.2064 3.792C94.8704 3.984 94.7024 4.232 94.7024 4.536C94.7024 4.776 94.8064 4.976 95.0144 5.136C95.2224 5.28 95.5344 5.416 95.9504 5.544L97.2224 5.952C98.7264 6.432 99.8784 7.048 100.678 7.8C101.494 8.536 101.902 9.544 101.902 10.824C101.902 12.184 101.366 13.288 100.294 14.136C99.2224 14.968 97.6464 15.384 95.5664 15.384C94.8304 15.384 94.1424 15.32 93.5024 15.192C92.8784 15.08 92.3264 14.912 91.8464 14.688C91.3824 14.448 91.0144 14.16 90.7424 13.824C90.4864 13.472 90.3584 13.072 90.3584 12.624C90.3584 12.16 90.4944 11.768 90.7664 11.448C91.0384 11.112 91.3344 10.856 91.6544 10.68C92.1024 11.032 92.6464 11.336 93.2864 11.592C93.9424 11.848 94.6544 11.976 95.4224 11.976C96.2064 11.976 96.7584 11.856 97.0784 11.616C97.3984 11.376 97.5584 11.096 97.5584 10.776C97.5584 10.456 97.4304 10.216 97.1744 10.056C96.9184 9.88 96.5584 9.712 96.0944 9.552L95.0864 9.216Z" fill="#4299A1"/>
</svg>
